<svg width="370" height="512" viewBox="0 0 370 512" fill="none" xmlns="http://www.w3.org/2000/svg">
<mask id="mask0_3763_6082" style="mask-type:luminance" maskUnits="userSpaceOnUse" x="0" y="0" width="370" height="512">
<path d="M231.206 0H34.6809C15.6064 0 0 15.7091 0 34.9091V477.091C0 496.291 15.6064 512 34.6809 512H335.249C354.323 512 369.93 496.291 369.93 477.091V139.636L231.206 0Z" fill="white"/>
</mask>
<g mask="url(#mask0_3763_6082)">
<path d="M231.206 0H34.6809C15.6064 0 0 15.7091 0 34.9091V477.091C0 496.291 15.6064 512 34.6809 512H335.249C354.323 512 369.93 496.291 369.93 477.091V139.636L289.007 81.4546L231.206 0Z" fill="#0F9D58"/>
</g>
<mask id="mask1_3763_6082" style="mask-type:luminance" maskUnits="userSpaceOnUse" x="0" y="0" width="370" height="512">
<path d="M231.206 0H34.6809C15.6064 0 0 15.7091 0 34.9091V477.091C0 496.291 15.6064 512 34.6809 512H335.249C354.323 512 369.93 496.291 369.93 477.091V139.636L231.206 0Z" fill="white"/>
</mask>
<g mask="url(#mask1_3763_6082)">
<path d="M241.352 129.43L369.931 258.826V139.641L241.352 129.43Z" fill="url(#paint0_linear_3763_6082)"/>
</g>
<mask id="mask2_3763_6082" style="mask-type:luminance" maskUnits="userSpaceOnUse" x="0" y="0" width="370" height="512">
<path d="M231.206 0H34.6809C15.6064 0 0 15.7091 0 34.9091V477.091C0 496.291 15.6064 512 34.6809 512H335.249C354.323 512 369.93 496.291 369.93 477.091V139.636L231.206 0Z" fill="white"/>
</mask>
<g mask="url(#mask2_3763_6082)">
<path d="M231.203 0V104.727C231.203 124.015 246.723 139.636 265.884 139.636H369.927L231.203 0Z" fill="#87CEAC"/>
</g>
<mask id="mask3_3763_6082" style="mask-type:luminance" maskUnits="userSpaceOnUse" x="0" y="0" width="370" height="512">
<path d="M231.206 0H34.6809C15.6064 0 0 15.7091 0 34.9091V477.091C0 496.291 15.6064 512 34.6809 512H335.249C354.323 512 369.93 496.291 369.93 477.091V139.636L231.206 0Z" fill="white"/>
</mask>
<g mask="url(#mask3_3763_6082)">
<path d="M34.6809 0C15.6064 0 0 15.7091 0 34.9091V37.8182C0 18.6182 15.6064 2.90909 34.6809 2.90909H231.206V0H34.6809Z" fill="white" fill-opacity="0.2"/>
</g>
<mask id="mask4_3763_6082" style="mask-type:luminance" maskUnits="userSpaceOnUse" x="0" y="0" width="370" height="512">
<path d="M231.206 0H34.6809C15.6064 0 0 15.7091 0 34.9091V477.091C0 496.291 15.6064 512 34.6809 512H335.249C354.323 512 369.93 496.291 369.93 477.091V139.636L231.206 0Z" fill="white"/>
</mask>
<g mask="url(#mask4_3763_6082)">
<path d="M335.249 509.089H34.6809C15.6064 509.089 0 493.38 0 474.18V477.089C0 496.289 15.6064 511.998 34.6809 511.998H335.249C354.323 511.998 369.93 496.289 369.93 477.089V474.18C369.93 493.38 354.323 509.089 335.249 509.089Z" fill="#263238" fill-opacity="0.2"/>
</g>
<mask id="mask5_3763_6082" style="mask-type:luminance" maskUnits="userSpaceOnUse" x="0" y="0" width="370" height="512">
<path d="M231.206 0H34.6809C15.6064 0 0 15.7091 0 34.9091V477.091C0 496.291 15.6064 512 34.6809 512H335.249C354.323 512 369.93 496.291 369.93 477.091V139.636L231.206 0Z" fill="white"/>
</mask>
<g mask="url(#mask5_3763_6082)">
<path d="M265.884 139.632C246.723 139.632 231.203 124.01 231.203 104.723V107.632C231.203 126.919 246.723 142.541 265.884 142.541H369.927V139.632H265.884Z" fill="#263238" fill-opacity="0.1"/>
</g>
<path d="M282.403 344.34C276.062 344.398 271.292 346.288 268.093 350.011C264.893 353.734 263.293 361.995 263.293 374.792C263.293 384.681 262.944 391.982 262.246 396.694C261.548 401.464 259.803 405.448 257.011 408.648C254.219 411.847 250.612 414.145 246.191 415.541C241.77 416.995 235.517 417.722 227.431 417.722H222.807V396.862C230.892 396.862 235.837 395.937 237.64 394.25C239.502 392.563 240.49 389.131 240.607 383.954C240.956 369.062 241.479 359.522 242.177 355.334C242.934 351.088 244.388 347.132 246.54 343.467C248.751 339.802 252.212 336.603 256.924 333.869C251.921 330.611 248.431 327.412 246.453 324.271C244.475 321.13 243.137 317.727 242.439 314.062C241.741 310.339 241.218 303.475 240.869 293.469C240.52 283.406 240.112 277.647 239.647 276.193C239.182 274.738 238.047 273.488 236.244 272.441C234.499 271.393 229.991 270.87 222.719 270.87V250.016H227.344C236.651 250.016 243.835 251.092 248.896 253.244C253.957 255.338 257.622 258.799 259.89 263.628C262.159 268.456 263.293 276.251 263.293 287.012C263.293 299.345 263.73 307.11 264.602 310.31C265.533 313.509 267.133 316.447 269.401 319.123C271.728 321.74 276.062 323.166 282.403 323.398V344.34Z" fill="white"/>
<path d="M210.806 250.016V270.864H91.6719V250.016H210.806Z" fill="white"/>
<path d="M210.806 300.945V318.815H91.6719V300.945H210.806Z" fill="white"/>
<path d="M210.806 348.897V366.767H91.6719V348.897H210.806Z" fill="white"/>
<path d="M210.806 396.848V417.697H91.6719V396.848H210.806Z" fill="white"/>
<path d="M115.499 250.016V416.803H91.6719V250.016H115.499ZM192.936 250.016V416.803H169.109V250.016H192.936Z" fill="white"/>
<defs>
<linearGradient id="paint0_linear_3763_6082" x1="305.648" y1="140.54" x2="305.648" y2="258.844" gradientUnits="userSpaceOnUse">
<stop stop-color="#263238" stop-opacity="0.2"/>
<stop offset="1" stop-color="#263238" stop-opacity="0.02"/>
</linearGradient>
</defs>
</svg>
